# xmcd CD database file
#
# Track frame offsets:
#	150
#	19438
#	40300
#	57415
#	72287
#	89143
#	103510
#	124190
#	143510
#	162160
#	176665
#	200035
#	214855
#	230333
#
# Disc length: 3286 seconds
#
# Revision: 2
# Processed by: cddbd v1.5.2PL0 Copyright (c) Steve Scherf et al.
# Submitted via: CDex 1.51
#
DISCID=d00cd40e
DTITLE=A Cor Do Som - Geração Pop
DYEAR=1994
DGENRE=
TTITLE0=Beleza Pura
TTITLE1=Abri A Porta
TTITLE2=Palco
TTITLE3=Transe Total
TTITLE4=Menino Deus
TTITLE5=Magia Tropical
TTITLE6=Arpoador
TTITLE7=Alto Astral
TTITLE8=Suingue Menina
TTITLE9=Zero
TTITLE10=Frutificar
TTITLE11=Mudança De Estação
TTITLE12=Zanzibar (As Cores) 
TTITLE13=Assanhado
EXTD=YEAR: 1994
EXTT0=
EXTT1=
EXTT2=
EXTT3=
EXTT4=
EXTT5=
EXTT6=
EXTT7=
EXTT8=
EXTT9=
EXTT10=
EXTT11=
EXTT12=
EXTT13=
PLAYORDER=
